# xmcd
#
# Track frame offsets:
#	182
#	18507
#	33732
#	54957
#	72282
#	92007
#	110007
#	125457
#	150582
#	166407
#	187932
#	210507
#	234207
#	258507
#	273657
#	297970
#
# Disc length: 4267 seconds
#
# Revision: 0
# Processed by: cddbd v1.4PL0 Copyright (c) Steve Scherf et al.
# Submitted via: EasyCDDAExtractor 5.0.2.1
#
DISCID=de10a910
DTITLE=Marika Gombitova - Polnocne otazky
DYEAR=1993
DGENRE=
TTITLE0=Crazy
TTITLE1=Zem menom Laska
TTITLE2=Volne miesto v srdci
TTITLE3=Mami, mami
TTITLE4=Zaverecna
TTITLE5=V obdobi dazda
TTITLE6=Atelier duse
TTITLE7=Koloseum
TTITLE8=Tak si so mnou opakuj
TTITLE9=Ave Maria
TTITLE10=Polnocne otazky
TTITLE11=Babylonia
TTITLE12=Zi anechaj zit
TTITLE13=Novenbrove chryzantemy
TTITLE14=Ulomky spomienok
TTITLE15=Kriz
EXTD=
EXTT0=
EXTT1=
EXTT2=
EXTT3=
EXTT4=
EXTT5=
EXTT6=
EXTT7=
EXTT8=
EXTT9=
EXTT10=
EXTT11=
EXTT12=
EXTT13=
EXTT14=
EXTT15=
PLAYORDER=
